<?xml version="1.0" encoding="UTF-8" standalone="no"?>
<!-- Created with Inkscape (http://www.inkscape.org/) -->

<svg
   width="98.971001mm"
   height="66.750221mm"
   viewBox="0 0 98.971001 66.750221"
   version="1.1"
   id="svg1"
   xml:space="preserve"
   inkscape:version="1.3 (0e150ed6c4, 2023-07-21)"
   sodipodi:docname="Night Owl Logo - Without Frame.svg"
   xmlns:inkscape="http://www.inkscape.org/namespaces/inkscape"
   xmlns:sodipodi="http://sodipodi.sourceforge.net/DTD/sodipodi-0.dtd"
   xmlns:xlink="http://www.w3.org/1999/xlink"
   xmlns="http://www.w3.org/2000/svg"
   xmlns:svg="http://www.w3.org/2000/svg"><sodipodi:namedview
     id="namedview1"
     pagecolor="#505050"
     bordercolor="#eeeeee"
     borderopacity="1"
     inkscape:showpageshadow="0"
     inkscape:pageopacity="0"
     inkscape:pagecheckerboard="0"
     inkscape:deskcolor="#505050"
     inkscape:document-units="mm"
     inkscape:zoom="2"
     inkscape:cx="288.5"
     inkscape:cy="177"
     inkscape:window-width="2558"
     inkscape:window-height="1360"
     inkscape:window-x="2546"
     inkscape:window-y="0"
     inkscape:window-maximized="0"
     inkscape:current-layer="layer2" /><defs
     id="defs1"><linearGradient
       id="linearGradient9"
       inkscape:collect="always"><stop
         style="stop-color:#621a1a;stop-opacity:1;"
         offset="0"
         id="stop10" /><stop
         style="stop-color:#211414;stop-opacity:1;"
         offset="1"
         id="stop11" /></linearGradient><radialGradient
       inkscape:collect="always"
       xlink:href="#linearGradient9"
       id="radialGradient11"
       cx="104.98379"
       cy="150.03082"
       fx="104.98379"
       fy="150.03082"
       r="49.4855"
       gradientTransform="matrix(1,0,0,0.67444226,-1.5164437e-6,48.843691)"
       gradientUnits="userSpaceOnUse" /><radialGradient
       inkscape:collect="always"
       xlink:href="#linearGradient9"
       id="radialGradient2"
       gradientUnits="userSpaceOnUse"
       gradientTransform="matrix(1,0,0,0.67444226,-1.5164437e-6,48.843691)"
       cx="104.98379"
       cy="150.03082"
       fx="104.98379"
       fy="150.03082"
       r="49.4855" /><radialGradient
       inkscape:collect="always"
       xlink:href="#linearGradient9"
       id="radialGradient3"
       gradientUnits="userSpaceOnUse"
       gradientTransform="matrix(1,0,0,0.67444226,-1.5164437e-6,48.843691)"
       cx="104.98379"
       cy="150.03082"
       fx="104.98379"
       fy="150.03082"
       r="49.4855" /><radialGradient
       inkscape:collect="always"
       xlink:href="#linearGradient9"
       id="radialGradient4"
       gradientUnits="userSpaceOnUse"
       gradientTransform="matrix(1,0,0,0.67444226,-1.5164437e-6,48.843691)"
       cx="104.98379"
       cy="150.03082"
       fx="104.98379"
       fy="150.03082"
       r="49.4855" /><radialGradient
       inkscape:collect="always"
       xlink:href="#linearGradient9"
       id="radialGradient5"
       gradientUnits="userSpaceOnUse"
       gradientTransform="matrix(1,0,0,0.67444226,-1.5164437e-6,48.843691)"
       cx="104.98379"
       cy="150.03082"
       fx="104.98379"
       fy="150.03082"
       r="49.4855" /><radialGradient
       inkscape:collect="always"
       xlink:href="#linearGradient9"
       id="radialGradient6"
       gradientUnits="userSpaceOnUse"
       gradientTransform="matrix(1,0,0,0.67444226,-1.5164437e-6,48.843691)"
       cx="104.98379"
       cy="150.03082"
       fx="104.98379"
       fy="150.03082"
       r="49.4855" /><radialGradient
       inkscape:collect="always"
       xlink:href="#linearGradient9"
       id="radialGradient7"
       gradientUnits="userSpaceOnUse"
       gradientTransform="matrix(1,0,0,0.67444226,-1.5164437e-6,48.843691)"
       cx="104.98379"
       cy="150.03082"
       fx="104.98379"
       fy="150.03082"
       r="49.4855" /><radialGradient
       inkscape:collect="always"
       xlink:href="#linearGradient9"
       id="radialGradient8"
       gradientUnits="userSpaceOnUse"
       gradientTransform="matrix(1,0,0,0.67444226,-1.5164437e-6,48.843691)"
       cx="104.98379"
       cy="150.03082"
       fx="104.98379"
       fy="150.03082"
       r="49.4855" /><radialGradient
       inkscape:collect="always"
       xlink:href="#linearGradient9"
       id="radialGradient9"
       gradientUnits="userSpaceOnUse"
       gradientTransform="matrix(1,0,0,0.67444226,-1.5164437e-6,48.843691)"
       cx="104.98379"
       cy="150.03082"
       fx="104.98379"
       fy="150.03082"
       r="49.4855" /><radialGradient
       inkscape:collect="always"
       xlink:href="#linearGradient9"
       id="radialGradient10"
       gradientUnits="userSpaceOnUse"
       gradientTransform="matrix(1,0,0,0.67444226,-1.5164437e-6,48.843691)"
       cx="104.98379"
       cy="150.03082"
       fx="104.98379"
       fy="150.03082"
       r="49.4855" /><radialGradient
       inkscape:collect="always"
       xlink:href="#linearGradient9"
       id="radialGradient12"
       gradientUnits="userSpaceOnUse"
       gradientTransform="matrix(1,0,0,0.67444226,-1.5164437e-6,48.843691)"
       cx="104.98379"
       cy="150.03082"
       fx="104.98379"
       fy="150.03082"
       r="49.4855" /><radialGradient
       inkscape:collect="always"
       xlink:href="#linearGradient9"
       id="radialGradient13"
       gradientUnits="userSpaceOnUse"
       gradientTransform="matrix(1,0,0,0.67444226,-1.5164437e-6,48.843691)"
       cx="104.98379"
       cy="150.03082"
       fx="104.98379"
       fy="150.03082"
       r="49.4855" /><radialGradient
       inkscape:collect="always"
       xlink:href="#linearGradient9"
       id="radialGradient14"
       gradientUnits="userSpaceOnUse"
       gradientTransform="matrix(1,0,0,0.67444226,-1.5164437e-6,48.843691)"
       cx="104.98379"
       cy="150.03082"
       fx="104.98379"
       fy="150.03082"
       r="49.4855" /><radialGradient
       inkscape:collect="always"
       xlink:href="#linearGradient9"
       id="radialGradient15"
       gradientUnits="userSpaceOnUse"
       gradientTransform="matrix(1,0,0,0.67444226,-1.5164437e-6,48.843691)"
       cx="104.98379"
       cy="150.03082"
       fx="104.98379"
       fy="150.03082"
       r="49.4855" /><radialGradient
       inkscape:collect="always"
       xlink:href="#linearGradient9"
       id="radialGradient16"
       gradientUnits="userSpaceOnUse"
       gradientTransform="matrix(1,0,0,0.67444226,-1.5164437e-6,48.843691)"
       cx="104.98379"
       cy="150.03082"
       fx="104.98379"
       fy="150.03082"
       r="49.4855" /><radialGradient
       inkscape:collect="always"
       xlink:href="#linearGradient9"
       id="radialGradient17"
       gradientUnits="userSpaceOnUse"
       gradientTransform="matrix(1,0,0,0.67444226,-1.5164437e-6,48.843691)"
       cx="104.98379"
       cy="150.03082"
       fx="104.98379"
       fy="150.03082"
       r="49.4855" /><radialGradient
       inkscape:collect="always"
       xlink:href="#linearGradient9"
       id="radialGradient18"
       gradientUnits="userSpaceOnUse"
       gradientTransform="matrix(1,0,0,0.67444226,-1.5164437e-6,48.843691)"
       cx="104.98379"
       cy="150.03082"
       fx="104.98379"
       fy="150.03082"
       r="49.4855" /><radialGradient
       inkscape:collect="always"
       xlink:href="#linearGradient9"
       id="radialGradient19"
       gradientUnits="userSpaceOnUse"
       gradientTransform="matrix(1,0,0,0.67444226,-1.5164437e-6,48.843691)"
       cx="104.98379"
       cy="150.03082"
       fx="104.98379"
       fy="150.03082"
       r="49.4855" /><radialGradient
       inkscape:collect="always"
       xlink:href="#linearGradient9"
       id="radialGradient20"
       gradientUnits="userSpaceOnUse"
       gradientTransform="matrix(1,0,0,0.67444226,-1.5164437e-6,48.843691)"
       cx="104.98379"
       cy="150.03082"
       fx="104.98379"
       fy="150.03082"
       r="49.4855" /><radialGradient
       inkscape:collect="always"
       xlink:href="#linearGradient9"
       id="radialGradient21"
       gradientUnits="userSpaceOnUse"
       gradientTransform="matrix(1,0,0,0.67444226,-1.5164437e-6,48.843691)"
       cx="104.98379"
       cy="150.03082"
       fx="104.98379"
       fy="150.03082"
       r="49.4855" /><radialGradient
       inkscape:collect="always"
       xlink:href="#linearGradient9"
       id="radialGradient22"
       gradientUnits="userSpaceOnUse"
       gradientTransform="matrix(1,0,0,0.67444226,-1.5164437e-6,48.843691)"
       cx="104.98379"
       cy="150.03082"
       fx="104.98379"
       fy="150.03082"
       r="49.4855" /><radialGradient
       inkscape:collect="always"
       xlink:href="#linearGradient9"
       id="radialGradient23"
       gradientUnits="userSpaceOnUse"
       gradientTransform="matrix(1,0,0,0.67444226,-1.5164437e-6,48.843691)"
       cx="104.98379"
       cy="150.03082"
       fx="104.98379"
       fy="150.03082"
       r="49.4855" /><radialGradient
       inkscape:collect="always"
       xlink:href="#linearGradient9"
       id="radialGradient24"
       gradientUnits="userSpaceOnUse"
       gradientTransform="matrix(1,0,0,0.67444226,-1.5164437e-6,48.843691)"
       cx="104.98379"
       cy="150.03082"
       fx="104.98379"
       fy="150.03082"
       r="49.4855" /><radialGradient
       inkscape:collect="always"
       xlink:href="#linearGradient9"
       id="radialGradient25"
       gradientUnits="userSpaceOnUse"
       gradientTransform="matrix(1,0,0,0.67444226,-1.5164437e-6,48.843691)"
       cx="104.98379"
       cy="150.03082"
       fx="104.98379"
       fy="150.03082"
       r="49.4855" /><radialGradient
       inkscape:collect="always"
       xlink:href="#linearGradient9"
       id="radialGradient26"
       gradientUnits="userSpaceOnUse"
       gradientTransform="matrix(1,0,0,0.67444226,-1.5164437e-6,48.843691)"
       cx="104.98379"
       cy="150.03082"
       fx="104.98379"
       fy="150.03082"
       r="49.4855" /><radialGradient
       inkscape:collect="always"
       xlink:href="#linearGradient9"
       id="radialGradient27"
       gradientUnits="userSpaceOnUse"
       gradientTransform="matrix(1,0,0,0.67444226,-1.5164437e-6,48.843691)"
       cx="104.98379"
       cy="150.03082"
       fx="104.98379"
       fy="150.03082"
       r="49.4855" /><radialGradient
       inkscape:collect="always"
       xlink:href="#linearGradient9"
       id="radialGradient28"
       gradientUnits="userSpaceOnUse"
       gradientTransform="matrix(1,0,0,0.67444226,-1.5164437e-6,48.843691)"
       cx="104.98379"
       cy="150.03082"
       fx="104.98379"
       fy="150.03082"
       r="49.4855" /><radialGradient
       inkscape:collect="always"
       xlink:href="#linearGradient9"
       id="radialGradient29"
       gradientUnits="userSpaceOnUse"
       gradientTransform="matrix(1,0,0,0.67444226,-1.5164437e-6,48.843691)"
       cx="104.98379"
       cy="150.03082"
       fx="104.98379"
       fy="150.03082"
       r="49.4855" /><radialGradient
       inkscape:collect="always"
       xlink:href="#linearGradient9"
       id="radialGradient30"
       gradientUnits="userSpaceOnUse"
       gradientTransform="matrix(1,0,0,0.67444226,-1.5164437e-6,48.843691)"
       cx="104.98379"
       cy="150.03082"
       fx="104.98379"
       fy="150.03082"
       r="49.4855" /><radialGradient
       inkscape:collect="always"
       xlink:href="#linearGradient9"
       id="radialGradient31"
       gradientUnits="userSpaceOnUse"
       gradientTransform="matrix(1,0,0,0.67444226,-1.5164437e-6,48.843691)"
       cx="104.98379"
       cy="150.03082"
       fx="104.98379"
       fy="150.03082"
       r="49.4855" /><radialGradient
       inkscape:collect="always"
       xlink:href="#linearGradient9"
       id="radialGradient32"
       gradientUnits="userSpaceOnUse"
       gradientTransform="matrix(1,0,0,0.67444226,-1.5164437e-6,48.843691)"
       cx="104.98379"
       cy="150.03082"
       fx="104.98379"
       fy="150.03082"
       r="49.4855" /><radialGradient
       inkscape:collect="always"
       xlink:href="#linearGradient9"
       id="radialGradient33"
       gradientUnits="userSpaceOnUse"
       gradientTransform="matrix(1,0,0,0.67444226,-1.5164437e-6,48.843691)"
       cx="104.98379"
       cy="150.03082"
       fx="104.98379"
       fy="150.03082"
       r="49.4855" /><radialGradient
       inkscape:collect="always"
       xlink:href="#linearGradient9"
       id="radialGradient34"
       gradientUnits="userSpaceOnUse"
       gradientTransform="matrix(1,0,0,0.67444226,-1.5164437e-6,48.843691)"
       cx="104.98379"
       cy="150.03082"
       fx="104.98379"
       fy="150.03082"
       r="49.4855" /><radialGradient
       inkscape:collect="always"
       xlink:href="#linearGradient9"
       id="radialGradient35"
       gradientUnits="userSpaceOnUse"
       gradientTransform="matrix(1,0,0,0.67444226,-1.5164437e-6,48.843691)"
       cx="104.98379"
       cy="150.03082"
       fx="104.98379"
       fy="150.03082"
       r="49.4855" /></defs><g
     inkscape:groupmode="layer"
     id="layer2"
     inkscape:label="Ebene 2"
     style="display:inline"
     transform="translate(-55.498294,-116.65571)"><g
       id="g190"
       style="display:inline;mix-blend-mode:normal;fill:none;stroke:url(#radialGradient11)"><g
         id="g187"
         style="display:inline;fill:none;stroke:url(#radialGradient14)"><path
           id="path9"
           style="display:inline;fill:none;stroke:url(#radialGradient2);stroke-width:1.5875"
           d="m 104.97861,136.1643 -0.009,24.67549 c 0.01,-0.003 0.0193,-0.009 0.0289,-0.01 l -0.009,-24.65431 z m -39.124232,3.83904 c -4.22345,6.24881 -5.474509,14.04278 -3.418913,21.29948 3.866847,13.5903 18.018567,21.4728 31.608924,17.60616 2.666448,-0.77825 5.188363,-1.98554 7.466731,-3.57446 l -4.511356,-9.54722 c -0.02215,-0.0469 -0.04434,-0.10545 0,-0.1323 l 4.375446,-2.64841 z m 42.753462,22.99291 2.0066,1.21492 z"
           sodipodi:nodetypes="cccccccccccccccc" /><path
           id="circle9"
           style="display:inline;fill:none;stroke:url(#radialGradient3);stroke-width:1.5875"
           d="m 80.260734,149.333 a 8.3254471,8.3254471 0 0 0 -1.496549,4.7346 8.3254471,8.3254471 0 0 0 8.32559,8.32559 8.3254471,8.3254471 0 0 0 7.126696,-4.0225 z" /><path
           id="circle10"
           style="display:inline;fill:none;stroke:url(#radialGradient4);stroke-width:1.5875"
           d="m 83.525134,151.44709 a 4.4353323,4.4353323 0 0 0 -0.870748,2.62051 4.4353323,4.4353323 0 0 0 4.435389,4.43539 4.4353323,4.4353323 0 0 0 3.849377,-2.25465 z" /><path
           style="display:inline;fill:none;stroke:url(#radialGradient5);stroke-width:1.5875;stroke-dasharray:none"
           d="m 62.571527,148.03057 c 16.211492,3.83662 16.27655,3.90384 16.27655,3.90384"
           id="path10" /><path
           style="display:inline;fill:none;stroke:url(#radialGradient6);stroke-width:1.5875;stroke-dasharray:none"
           d="m 62.128109,156.82263 c 16.571494,-1.70814 16.655039,-1.66605 16.655039,-1.66605"
           id="path11" /><path
           style="display:inline;fill:none;stroke:url(#radialGradient7);stroke-width:1.5875;stroke-dasharray:none"
           d="m 64.711417,165.5533 c 14.785876,-7.67529 14.87904,-7.66683 14.87904,-7.66683"
           id="path12" /><path
           style="display:inline;fill:none;stroke:url(#radialGradient8);stroke-width:1.5875;stroke-dasharray:none"
           d="m 70.123295,172.68458 c 11.267165,-12.27124 11.3576,-12.29516 11.3576,-12.29516"
           id="path13" /><path
           style="display:inline;fill:none;stroke:url(#radialGradient9);stroke-width:1.5875;stroke-dasharray:none"
           d="m 77.826653,177.59997 c 6.142503,-15.48554 6.218435,-15.54017 6.218435,-15.54017"
           id="path14" /><path
           style="display:inline;fill:none;stroke:url(#radialGradient10);stroke-width:1.5875;stroke-dasharray:none"
           d="m 86.691941,179.47089 c 0.265608,-16.65718 0.317297,-16.73514 0.317297,-16.73514"
           id="path15" /><path
           style="display:inline;fill:none;stroke:url(#radialGradient12);stroke-width:1.5875;stroke-dasharray:none"
           d="M 95.503878,177.84481 C 90.029535,162.11065 90.051287,162.01968 90.051287,162.01968"
           id="path16" /><path
           id="path17"
           style="display:inline;fill:none;stroke:url(#radialGradient13);stroke-width:1.5875;stroke-dasharray:none"
           d="m 92.629488,160.31063 c 0,0 0.09735,0.17333 4.668449,6.10764 l -0.03979,-0.0837 z" /></g><g
         id="g189"
         style="display:inline;fill:none;stroke:url(#radialGradient26)"><path
           id="circle18"
           style="display:inline;fill:none;stroke:url(#radialGradient15);stroke-width:1.5875"
           d="m 104.98894,136.06405 -0.0103,0.0114 -0.009,24.76438 c 0.01,-0.003 0.0193,-0.009 0.029,-0.01 z m 39.06376,3.97857 -35.44486,22.95364 4.39198,2.65874 c 0.0443,0.0268 0.0221,0.0854 0,0.13229 l -4.54856,9.62578 c 2.2525,1.55152 4.73921,2.7318 7.36544,3.49591 13.59052,3.86697 27.7426,-4.01561 31.60944,-17.60617 2.0566,-7.238 0.8227,-15.01434 -3.37344,-21.26019 z m -44.74765,24.21712 2.07016,-1.25315 z"
           sodipodi:nodetypes="cccccccccccccccc" /><path
           id="circle19"
           style="fill:none;stroke:url(#radialGradient16);stroke-width:1.5875"
           d="m 129.6448,149.37279 -13.96142,9.04131 a 8.3254471,8.3254471 0 0 0 7.08794,3.97909 8.3254471,8.3254471 0 0 0 8.32559,-8.32559 8.3254471,8.3254471 0 0 0 -1.45211,-4.69481 z" /><path
           id="circle20"
           style="fill:none;stroke:url(#radialGradient17);stroke-width:1.5875"
           d="m 126.37058,151.49308 -7.42125,4.80591 a 4.4353323,4.4353323 0 0 0 3.82199,2.204 4.4353323,4.4353323 0 0 0 4.43539,-4.43539 4.4353323,4.4353323 0 0 0 -0.83613,-2.57452 z" /><path
           style="display:inline;fill:none;stroke:url(#radialGradient18);stroke-width:1.5875;stroke-dasharray:none"
           d="m 147.28976,148.03057 c -16.21149,3.83662 -16.27655,3.90384 -16.27655,3.90384"
           id="path20" /><path
           style="display:inline;fill:none;stroke:url(#radialGradient19);stroke-width:1.5875;stroke-dasharray:none"
           d="m 147.73318,156.82263 c -16.57149,-1.70814 -16.65504,-1.66605 -16.65504,-1.66605"
           id="path21" /><path
           style="display:inline;fill:none;stroke:url(#radialGradient20);stroke-width:1.5875;stroke-dasharray:none"
           d="m 145.14987,165.5533 c -14.78587,-7.67529 -14.87904,-7.66683 -14.87904,-7.66683"
           id="path22" /><path
           style="display:inline;fill:none;stroke:url(#radialGradient21);stroke-width:1.5875;stroke-dasharray:none"
           d="m 139.73799,172.68458 c -11.26716,-12.27124 -11.3576,-12.29516 -11.3576,-12.29516"
           id="path23" /><path
           style="display:inline;fill:none;stroke:url(#radialGradient22);stroke-width:1.5875;stroke-dasharray:none"
           d="M 132.03464,177.59997 C 125.89213,162.11443 125.8162,162.0598 125.8162,162.0598"
           id="path24" /><path
           style="display:inline;fill:none;stroke:url(#radialGradient23);stroke-width:1.5875;stroke-dasharray:none"
           d="m 123.16935,179.47089 c -0.26561,-16.65718 -0.3173,-16.73514 -0.3173,-16.73514"
           id="path25" /><path
           style="display:inline;fill:none;stroke:url(#radialGradient24);stroke-width:1.5875;stroke-dasharray:none"
           d="M 114.35741,177.84481 C 119.83176,162.11065 119.81,162.01968 119.81,162.01968"
           id="path26" /><path
           id="path27"
           style="display:inline;fill:none;stroke:url(#radialGradient25);stroke-width:1.5875;stroke-dasharray:none"
           d="m 117.23574,160.25637 -4.23592,5.53093 -0.0796,0.16846 c 1.87816,-2.44716 3.23699,-4.22323 4.34495,-5.67407 a 8.3254471,8.3254471 0 0 1 -0.0294,-0.0253 z" /></g><path
         id="rect33"
         style="display:inline;fill:none;stroke:url(#radialGradient27);stroke-width:1.5875"
         d="m 105.06615,160.85209 7.93387,4.80278 c 0.0443,0.0268 0.0221,0.0854 -4e-5,0.13226 l -7.93386,16.78991 c -0.0221,0.0469 -0.11017,0.0468 -0.13226,4e-5 l -7.933878,-16.78995 c -0.02215,-0.0469 -0.0443,-0.10542 3.5e-5,-0.13226 l 7.933873,-4.80275 c 0.0444,-0.0268 0.0956,-0.0367 0.13226,-4e-5 z"
         sodipodi:nodetypes="cssssssssc" /><g
         id="g188"
         style="display:inline;fill:none;stroke:url(#radialGradient35)"><path
           id="rect34"
           style="display:inline;fill:none;stroke:url(#radialGradient28);stroke-width:1.5875"
           d="m 153.57254,117.58507 -31.64251,5.15679 c -0.0512,0.008 -0.0744,0.0454 -0.0935,0.0935 l -15.4373,38.82398 2.20865,1.33687 35.7079,-23.12417 c 0.0435,-0.0282 0.0735,-0.0457 0.0935,-0.0935 l 9.2568,-22.09994 c 0.02,-0.0478 -0.0424,-0.10154 -0.0935,-0.0935 z" /><path
           id="path34"
           style="display:inline;fill:none;stroke:url(#radialGradient29);stroke-width:1.5875"
           d="m 153.57254,117.58507 -22.26634,8.77828 c -0.0483,0.019 -0.0645,0.0506 -0.0935,0.0935 l -24.11584,35.6247 1.51102,0.91467 35.7079,-23.12417 c 0.0435,-0.0282 0.0735,-0.0457 0.0935,-0.0935 l 9.2568,-22.09994 c 0.02,-0.0478 -0.0454,-0.11254 -0.0935,-0.0935 z" /><path
           id="rect35"
           style="display:inline;fill:none;stroke:url(#radialGradient30);stroke-width:1.5875"
           d="m 105.07731,122.73049 c -0.0518,0 -0.0936,0.0417 -0.0935,0.0935 l 0.0145,38.00595 c 0.0246,-0.002 0.0482,0.003 0.0677,0.0222 l 1.5012,0.90899 15.72514,-38.93716 c 0.0194,-0.048 -0.0417,-0.0935 -0.0935,-0.0935 z" /><path
           id="path36"
           style="display:inline;fill:none;stroke:url(#radialGradient31);stroke-width:1.5875"
           d="m 56.395007,117.58507 c -0.0511,-0.008 -0.113544,0.0457 -0.09353,0.0935 l 9.257316,22.09994 c 0.02,0.0478 0.04952,0.0653 0.09302,0.0935 l 35.723407,23.13451 2.19935,-1.3317 -15.443509,-38.83949 c -0.0191,-0.0481 -0.04234,-0.0851 -0.09354,-0.0935 z" /><path
           id="path37"
           style="display:inline;fill:none;stroke:url(#radialGradient32);stroke-width:1.5875"
           d="m 56.395007,117.58507 c -0.0481,-0.019 -0.113544,0.0457 -0.09353,0.0935 l 9.257316,22.09994 c 0.02,0.0478 0.04952,0.0653 0.09302,0.0935 l 35.723407,23.13451 1.50482,-0.91157 -24.125151,-35.63814 c -0.029,-0.0429 -0.04524,-0.0745 -0.09354,-0.0935 z" /><path
           id="path38"
           style="display:inline;fill:none;stroke:url(#radialGradient33);stroke-width:1.5875"
           d="m 56.395007,117.58507 c -0.0511,-0.008 -0.113544,0.0457 -0.09353,0.0935 l 9.257316,22.09994 c 0.02,0.0478 0.04952,0.0653 0.09302,0.0935 l 35.723407,23.13451 2.19935,-1.3317 -15.443509,-38.83949 c -0.0191,-0.0481 -0.04234,-0.0851 -0.09354,-0.0935 z"
           sodipodi:nodetypes="ccccccccc" /><path
           id="path39"
           style="display:inline;fill:none;stroke:url(#radialGradient34);stroke-width:1.5875"
           d="m 87.768803,122.73049 c -0.0518,0 -0.112934,0.0455 -0.09353,0.0935 l 15.731337,38.95266 1.52704,-0.92449 c 0.0114,-0.007 0.0237,-0.008 0.0357,-0.0124 l 0.0145,-38.01576 c 2e-5,-0.0518 -0.0417,-0.0935 -0.0935,-0.0935 z" /></g></g></g></svg>
